<svg width="357" height="357" viewBox="0 0 357 357" fill="none" xmlns="http://www.w3.org/2000/svg">
<rect x="6" y="6" width="345" height="345" rx="82" stroke="#0B6259" stroke-width="12"/>
<path d="M119 134.5H241M179.993 73C179.993 121.034 179.993 147.966 179.993 196" stroke="#0B6259" stroke-width="12"/>
<path d="M61.2188 266V240.406H69.4629C71.7246 240.406 73.7578 240.922 75.5625 241.953C77.3672 242.973 78.7734 244.42 79.7812 246.295C80.8008 248.158 81.3164 250.25 81.3281 252.57V253.748C81.3281 256.092 80.8301 258.195 79.834 260.059C78.8496 261.91 77.4551 263.363 75.6504 264.418C73.8574 265.461 71.8535 265.988 69.6387 266H61.2188ZM67.3887 245.17V261.254H69.5332C71.3027 261.254 72.6621 260.627 73.6113 259.373C74.5605 258.107 75.0352 256.232 75.0352 253.748V252.641C75.0352 250.168 74.5605 248.305 73.6113 247.051C72.6621 245.797 71.2793 245.17 69.4629 245.17H67.3887ZM95.7246 252.342L93.7734 252.201C91.9102 252.201 90.7148 252.787 90.1875 253.959V266H84.2637V246.98H89.8184L90.0117 249.424C91.0078 247.561 92.3965 246.629 94.1777 246.629C94.8105 246.629 95.3613 246.699 95.8301 246.84L95.7246 252.342ZM96.4805 256.314C96.4805 254.416 96.8496 252.729 97.5879 251.252C98.3262 249.764 99.3867 248.621 100.77 247.824C102.152 247.027 103.775 246.629 105.639 246.629C108.486 246.629 110.73 247.514 112.371 249.283C114.012 251.041 114.832 253.438 114.832 256.473V256.684C114.832 259.648 114.006 262.004 112.354 263.75C110.713 265.484 108.486 266.352 105.674 266.352C102.967 266.352 100.793 265.543 99.1523 263.926C97.5117 262.297 96.627 260.094 96.498 257.316L96.4805 256.314ZM102.404 256.684C102.404 258.441 102.68 259.73 103.23 260.551C103.781 261.371 104.596 261.781 105.674 261.781C107.783 261.781 108.861 260.158 108.908 256.912V256.314C108.908 252.904 107.818 251.199 105.639 251.199C103.658 251.199 102.586 252.67 102.422 255.611L102.404 256.684ZM135.1 256.631C135.1 259.584 134.432 261.945 133.096 263.715C131.771 265.473 129.979 266.352 127.717 266.352C125.971 266.352 124.535 265.713 123.41 264.436V273.312H117.486V246.98H123.023L123.199 248.738C124.336 247.332 125.83 246.629 127.682 246.629C130.025 246.629 131.848 247.496 133.148 249.23C134.449 250.953 135.1 253.326 135.1 256.35V256.631ZM129.176 256.262C129.176 252.887 128.191 251.199 126.223 251.199C124.816 251.199 123.879 251.703 123.41 252.711V260.199C123.926 261.254 124.875 261.781 126.258 261.781C128.145 261.781 129.117 260.152 129.176 256.895V256.262ZM148.072 266V251.094H145.312V246.98H148.072V246.348C148.107 243.816 148.939 241.877 150.568 240.529C152.115 239.264 154.277 238.631 157.055 238.631C158.801 238.631 160.863 238.971 163.242 239.65L162.434 244.326L161.449 244.062C160.172 243.723 158.824 243.553 157.406 243.553C155.145 243.553 154.014 244.584 154.014 246.646V246.98H157.74V251.094H154.014V266H148.072ZM165.967 266H160.008V246.98H165.967V266ZM175.828 266H169.887V239H175.828V266ZM188.695 266.352C185.777 266.352 183.416 265.484 181.611 263.75C179.807 262.004 178.904 259.736 178.904 256.947V256.455C178.904 254.51 179.262 252.793 179.977 251.305C180.703 249.816 181.758 248.668 183.141 247.859C184.523 247.039 186.164 246.629 188.062 246.629C190.734 246.629 192.844 247.461 194.391 249.125C195.938 250.777 196.711 253.086 196.711 256.051V258.354H184.934C185.145 259.42 185.607 260.258 186.322 260.867C187.037 261.477 187.963 261.781 189.1 261.781C190.975 261.781 192.439 261.125 193.494 259.812L196.201 263.012C195.463 264.031 194.414 264.846 193.055 265.455C191.707 266.053 190.254 266.352 188.695 266.352ZM188.027 251.199C186.293 251.199 185.262 252.348 184.934 254.645H190.91V254.188C190.934 253.238 190.693 252.506 190.189 251.99C189.686 251.463 188.965 251.199 188.027 251.199ZM209.068 260.656C209.068 260.152 208.805 259.748 208.277 259.443C207.75 259.139 206.748 258.822 205.271 258.494C203.795 258.166 202.576 257.738 201.615 257.211C200.654 256.672 199.922 256.021 199.418 255.26C198.914 254.498 198.662 253.625 198.662 252.641C198.662 250.895 199.383 249.459 200.824 248.334C202.266 247.197 204.152 246.629 206.484 246.629C208.992 246.629 211.008 247.197 212.531 248.334C214.055 249.471 214.816 250.965 214.816 252.816H208.875C208.875 251.293 208.072 250.531 206.467 250.531C205.846 250.531 205.324 250.707 204.902 251.059C204.48 251.398 204.27 251.826 204.27 252.342C204.27 252.869 204.527 253.297 205.043 253.625C205.559 253.953 206.379 254.223 207.504 254.434C208.641 254.645 209.637 254.896 210.492 255.189C213.352 256.174 214.781 257.938 214.781 260.48C214.781 262.215 214.008 263.627 212.461 264.717C210.926 265.807 208.934 266.352 206.484 266.352C204.855 266.352 203.402 266.059 202.125 265.473C200.848 264.887 199.852 264.09 199.137 263.082C198.422 262.074 198.064 261.014 198.064 259.9H203.602C203.625 260.779 203.918 261.424 204.48 261.834C205.043 262.232 205.764 262.432 206.643 262.432C207.451 262.432 208.055 262.268 208.453 261.939C208.863 261.611 209.068 261.184 209.068 260.656ZM232.324 249.02C233.59 247.426 235.207 246.629 237.176 246.629C239.273 246.629 240.855 247.25 241.922 248.492C242.988 249.734 243.533 251.568 243.557 253.994V266H237.615V254.135C237.615 253.127 237.41 252.389 237 251.92C236.59 251.439 235.893 251.199 234.908 251.199C233.689 251.199 232.828 251.586 232.324 252.359V266H226.4V239H232.324V249.02ZM256.055 266.352C253.137 266.352 250.775 265.484 248.971 263.75C247.166 262.004 246.264 259.736 246.264 256.947V256.455C246.264 254.51 246.621 252.793 247.336 251.305C248.062 249.816 249.117 248.668 250.5 247.859C251.883 247.039 253.523 246.629 255.422 246.629C258.094 246.629 260.203 247.461 261.75 249.125C263.297 250.777 264.07 253.086 264.07 256.051V258.354H252.293C252.504 259.42 252.967 260.258 253.682 260.867C254.396 261.477 255.322 261.781 256.459 261.781C258.334 261.781 259.799 261.125 260.854 259.812L263.561 263.012C262.822 264.031 261.773 264.846 260.414 265.455C259.066 266.053 257.613 266.352 256.055 266.352ZM255.387 251.199C253.652 251.199 252.621 252.348 252.293 254.645H258.27V254.188C258.293 253.238 258.053 252.506 257.549 251.99C257.045 251.463 256.324 251.199 255.387 251.199ZM277.975 252.342L276.023 252.201C274.16 252.201 272.965 252.787 272.438 253.959V266H266.514V246.98H272.068L272.262 249.424C273.258 247.561 274.646 246.629 276.428 246.629C277.061 246.629 277.611 246.699 278.08 246.84L277.975 252.342ZM288.961 266.352C286.043 266.352 283.682 265.484 281.877 263.75C280.072 262.004 279.17 259.736 279.17 256.947V256.455C279.17 254.51 279.527 252.793 280.242 251.305C280.969 249.816 282.023 248.668 283.406 247.859C284.789 247.039 286.43 246.629 288.328 246.629C291 246.629 293.109 247.461 294.656 249.125C296.203 250.777 296.977 253.086 296.977 256.051V258.354H285.199C285.41 259.42 285.873 260.258 286.588 260.867C287.303 261.477 288.229 261.781 289.365 261.781C291.24 261.781 292.705 261.125 293.76 259.812L296.467 263.012C295.729 264.031 294.68 264.846 293.32 265.455C291.973 266.053 290.52 266.352 288.961 266.352ZM288.293 251.199C286.559 251.199 285.527 252.348 285.199 254.645H291.176V254.188C291.199 253.238 290.959 252.506 290.455 251.99C289.951 251.463 289.23 251.199 288.293 251.199Z" fill="#0B6259"/>
</svg>
